<?xml version="1.0" encoding="UTF-8" standalone="no"?>
<svg
   xmlns:ns1="http://www.iki.fi/pav/software/textext/"
   xmlns:dc="http://purl.org/dc/elements/1.1/"
   xmlns:cc="http://creativecommons.org/ns#"
   xmlns:rdf="http://www.w3.org/1999/02/22-rdf-syntax-ns#"
   xmlns:svg="http://www.w3.org/2000/svg"
   xmlns="http://www.w3.org/2000/svg"
   xmlns:sodipodi="http://sodipodi.sourceforge.net/DTD/sodipodi-0.dtd"
   xmlns:inkscape="http://www.inkscape.org/namespaces/inkscape"
   sodipodi:docname="cv-logo.svg"
   inkscape:version="1.0 (4035a4fb49, 2020-05-01)"
   width="172.53381mm"
   height="97.60125mm"
   viewBox="0 0 172.53381 97.60125"
   version="1.1"
   id="svg8">
  <defs
     id="defs2" />
  <sodipodi:namedview
     fit-margin-bottom="0"
     fit-margin-right="0"
     fit-margin-left="0"
     fit-margin-top="0"
     inkscape:pagecheckerboard="true"
     inkscape:window-maximized="1"
     inkscape:window-y="-8"
     inkscape:window-x="-8"
     inkscape:window-height="705"
     inkscape:window-width="1366"
     showgrid="false"
     inkscape:document-rotation="0"
     inkscape:current-layer="g847"
     inkscape:document-units="mm"
     inkscape:cy="3.230312"
     inkscape:cx="326.04792"
     inkscape:zoom="0.35"
     inkscape:pageshadow="2"
     inkscape:pageopacity="0.0"
     borderopacity="1.0"
     bordercolor="#666666"
     pagecolor="#ffffff"
     id="base" />
  <metadata
     id="metadata5">
    <rdf:RDF>
      <cc:Work
         rdf:about="">
        <dc:format>image/svg+xml</dc:format>
        <dc:type
           rdf:resource="http://purl.org/dc/dcmitype/StillImage" />
        <dc:title></dc:title>
      </cc:Work>
    </rdf:RDF>
  </metadata>
  <g
     transform="translate(-19.566489,-147.31198)"
     id="layer1"
     inkscape:groupmode="layer"
     inkscape:label="Layer 1">
    <g
       transform="matrix(0.352778,0,0,0.352778,104.323,147.312)"
       ns1:version="1.1.0"
       ns1:texconverter="lualatex"
       ns1:pdfconverter="inkscape"
       ns1:text="\\aiCV"
       ns1:preamble="C:\\Users\\Mateus\\Desktop\\preamble.tex"
       ns1:scale="1.0"
       ns1:alignment="middle center"
       ns1:jacobian_sqrt="0.352778"
       id="g847">
      <defs
         id="id-067f2d88-3b08-419b-87ff-16e50a63cb64">
        <g
           id="id-be60e0a0-daab-441d-b593-a313c2949c5b">
          <symbol
             id="id-c4868015-fe64-4bee-b8b2-2435dabfbd75"
             overflow="visible">
            <path
               id="id-26794563-8717-448a-9f65-ecc4c556e5fa"
               d=""
               style="stroke:none" />
          </symbol>
          <symbol
             id="id-99225ea5-72ff-490b-9341-8a3582d7dc1e"
             overflow="visible">
            <path
               id="id-ae4accdb-bf1f-46cf-80f7-629cb5aae489"
               d="M 4.875,-2.15625 C 4.78125,-2.019531 4.679688,-1.882813 4.578125,-1.75 c -0.09375,0.125 -0.230469,0.25 -0.40625,0.375 -0.09375,0.0625 -0.25,0.148437 -0.46875,0.25 -0.21875,0.09375 -0.484375,0.140625 -0.796875,0.140625 -0.3125,0 -0.601562,-0.050781 -0.859375,-0.15625 C 1.785156,-1.242188 1.554688,-1.398438 1.359375,-1.609375 1.160156,-1.816406 1.003906,-2.070313 0.890625,-2.375 c -0.125,-0.300781 -0.1875,-0.644531 -0.1875,-1.03125 0,-0.332031 0.054688,-0.648438 0.171875,-0.953125 C 0.988281,-4.648438 1.140625,-4.90625 1.328125,-5.125 1.523438,-5.34375 1.757813,-5.515625 2.03125,-5.640625 c 0.269531,-0.125 0.566406,-0.1875 0.890625,-0.1875 0.257813,0 0.503906,0.042969 0.734375,0.125 0.226563,0.085937 0.429688,0.195312 0.609375,0.328125 0.15625,0.125 0.273438,0.25 0.359375,0.375 0.082031,0.125 0.160156,0.246094 0.234375,0.359375 L 3.953125,-4.1875 c -0.03125,-0.070313 -0.074219,-0.144531 -0.125,-0.21875 -0.054687,-0.082031 -0.125,-0.164063 -0.21875,-0.25 C 3.492188,-4.75 3.382813,-4.8125 3.28125,-4.84375 3.175781,-4.875 3.078125,-4.890625 2.984375,-4.890625 c -0.1875,0 -0.355469,0.042969 -0.5,0.125 -0.136719,0.074219 -0.25,0.179687 -0.34375,0.3125 -0.09375,0.136719 -0.167969,0.292969 -0.21875,0.46875 C 1.867188,-3.804688 1.84375,-3.625 1.84375,-3.4375 c 0,0.25 0.03125,0.46875 0.09375,0.65625 0.0625,0.1875 0.144531,0.34375 0.25,0.46875 0.101563,0.125 0.222656,0.21875 0.359375,0.28125 0.132813,0.0625 0.28125,0.09375 0.4375,0.09375 0.289063,0 0.503906,-0.078125 0.640625,-0.234375 0.144531,-0.164063 0.257813,-0.3125 0.34375,-0.4375 z M 8.046875,-5.6875 h 1.21875 l -1.59375,4.578125 H 6.515625 L 4.9375,-5.6875 h 1.21875 l 0.953125,3.25 z m 0,0"
               style="stroke:none" />
          </symbol>
        </g>
      </defs>
      <g
         transform="matrix(57.11789,0,0,57.11789,-8774.5312,-7364.6023)"
         id="id-bc969b7a-7210-455f-9f2c-b07d970b2798">
        <g
           id="id-1819221c-00f3-46bf-acaa-74b7a7c64446"
           style="fill:#000000;fill-opacity:1">
          <g
             transform="translate(148.712,134.765)"
             id="g843">
            <path
               id="id-e83f8d9f-d148-43ae-b720-38e53dd27126"
               d="M 4.875,-2.15625 C 4.78125,-2.019531 4.679688,-1.882813 4.578125,-1.75 c -0.09375,0.125 -0.230469,0.25 -0.40625,0.375 -0.09375,0.0625 -0.25,0.148437 -0.46875,0.25 -0.21875,0.09375 -0.484375,0.140625 -0.796875,0.140625 -0.3125,0 -0.601562,-0.050781 -0.859375,-0.15625 C 1.785156,-1.242188 1.554688,-1.398438 1.359375,-1.609375 1.160156,-1.816406 1.003906,-2.070313 0.890625,-2.375 c -0.125,-0.300781 -0.1875,-0.644531 -0.1875,-1.03125 0,-0.332031 0.054688,-0.648438 0.171875,-0.953125 C 0.988281,-4.648438 1.140625,-4.90625 1.328125,-5.125 1.523438,-5.34375 1.757813,-5.515625 2.03125,-5.640625 c 0.269531,-0.125 0.566406,-0.1875 0.890625,-0.1875 0.257813,0 0.503906,0.042969 0.734375,0.125 0.226563,0.085937 0.429688,0.195312 0.609375,0.328125 0.15625,0.125 0.273438,0.25 0.359375,0.375 0.082031,0.125 0.160156,0.246094 0.234375,0.359375 L 3.953125,-4.1875 c -0.03125,-0.070313 -0.074219,-0.144531 -0.125,-0.21875 -0.054687,-0.082031 -0.125,-0.164063 -0.21875,-0.25 C 3.492188,-4.75 3.382813,-4.8125 3.28125,-4.84375 3.175781,-4.875 3.078125,-4.890625 2.984375,-4.890625 c -0.1875,0 -0.355469,0.042969 -0.5,0.125 -0.136719,0.074219 -0.25,0.179687 -0.34375,0.3125 -0.09375,0.136719 -0.167969,0.292969 -0.21875,0.46875 C 1.867188,-3.804688 1.84375,-3.625 1.84375,-3.4375 c 0,0.25 0.03125,0.46875 0.09375,0.65625 0.0625,0.1875 0.144531,0.34375 0.25,0.46875 0.101563,0.125 0.222656,0.21875 0.359375,0.28125 0.132813,0.0625 0.28125,0.09375 0.4375,0.09375 0.289063,0 0.503906,-0.078125 0.640625,-0.234375 0.144531,-0.164063 0.257813,-0.3125 0.34375,-0.4375 z M 8.046875,-5.6875 h 1.21875 l -1.59375,4.578125 H 6.515625 L 4.9375,-5.6875 h 1.21875 l 0.953125,3.25 z m 0,0"
               style="stroke:none" />
          </g>
        </g>
      </g>
    </g>
  </g>
</svg>
