<?xml version="1.0" encoding="UTF-8" standalone="no"?>
<svg
   xmlns:dc="http://purl.org/dc/elements/1.1/"
   xmlns:cc="http://creativecommons.org/ns#"
   xmlns:rdf="http://www.w3.org/1999/02/22-rdf-syntax-ns#"
   xmlns:svg="http://www.w3.org/2000/svg"
   xmlns="http://www.w3.org/2000/svg"
   xmlns:sodipodi="http://sodipodi.sourceforge.net/DTD/sodipodi-0.dtd"
   xmlns:inkscape="http://www.inkscape.org/namespaces/inkscape"
   inkscape:version="1.0 (1.0+r73+1)"
   sodipodi:docname="cnpq-ativo.svg"
   xml:space="preserve"
   enable-background="new 0 0 418.32 178.68"
   viewBox="0 0 124.848 125.39988"
   height="125.39987"
   width="124.848"
   y="0px"
   x="0px"
   id="Camada_1"
   version="1.1"><metadata
   id="metadata21"><rdf:RDF><cc:Work
       rdf:about=""><dc:format>image/svg+xml</dc:format><dc:type
         rdf:resource="http://purl.org/dc/dcmitype/StillImage" /><dc:title></dc:title></cc:Work></rdf:RDF></metadata><defs
   id="defs19" /><sodipodi:namedview
   inkscape:current-layer="Camada_1"
   inkscape:window-maximized="1"
   inkscape:window-y="282"
   inkscape:window-x="1680"
   inkscape:cy="89.160792"
   inkscape:cx="195.55028"
   inkscape:zoom="1.3960604"
   fit-margin-bottom="0"
   fit-margin-right="0"
   fit-margin-left="0"
   fit-margin-top="0"
   showgrid="false"
   id="namedview17"
   inkscape:window-height="703"
   inkscape:window-width="1366"
   inkscape:pageshadow="2"
   inkscape:pageopacity="0"
   guidetolerance="10"
   gridtolerance="10"
   objecttolerance="10"
   borderopacity="1"
   bordercolor="#666666"
   pagecolor="#ffffff" />
<path
   id="path2"
   d="m 103.248,41.879871 c 2.088,8.352 1.872,12.888 0.432,19.584 -1.872,7.488 -5.976,13.032 -9.864,16.488 l 13.896,47.447999 H 93.96 c -4.608,-17.352 -10.368,-36.503999 -15.12,-53.855999 2.808,-1.512 10.656,-5.976 11.952,-16.416 1.224,-9.792 -4.896,-17.424 -9.072,-20.232 -3.672,-2.232 -9.072,-3.96 -14.112,-2.952 -9.792,1.08 -16.416,8.64 -17.928,16.992 -0.216,1.152 -0.216,1.728 -0.36,3.312 0,0 -3.816,10.728 -5.112,14.112 h 2.88 l -0.072,27.864 h 33.12 l 3.816,13.535999 H 33.336 V 76.583871 h -6.984 c 2.52,-7.56 9,-24.336 9,-24.336 0.792,-6.048 1.152,-17.64 13.464,-27.144 5.76,-4.824 14.76,-8.064 24.408,-7.272 15.912,1.944 26.496,12.816 30.024,24.048 z"
   fill="#0067a6" />
<path
   id="path4"
   d="m 117.36,29.495871 c 10.08,22.248 3.528,43.128 -3.96,52.992 l 11.448,42.551999 H 111.312 L 98.064,79.247871 c 8.208,-7.848 13.32,-23.832 9.36,-37.008 -3.6,-13.32 -14.688,-24.552 -30.384,-27.648 -16.848,-3.456 -32.76,5.184 -39.528,17.136 -4.32,6.552 -5.04,12.816 -5.76,20.52 0,0 -8.496,20.376 -11.376,27.792 h 9 l 0.072,31.319999 H 84.96 l 3.888,13.896 H 15.696 V 92.279871 L 0,92.207871 c 0,0 16.992,-38.808 16.92,-39.96 1.008,-13.608 7.128,-30.528 20.088,-40.608 6.624,-5.184 15.48,-10.152 27.288,-11.304 12.816,-1.224 18.288,1.08 26.856,3.96 14.328,6.12 24.048,19.944 26.208,25.2 z"
   fill="#0067a6" />
<path
   id="path6"
   d="m 56.52,52.679871 c 0,-7.56 6.12,-13.68 13.608,-13.68 7.56,0 13.68,6.12 13.68,13.68 0,7.488 -6.12,13.536 -13.68,13.536 -7.488,0 -13.608,-6.048 -13.608,-13.536 z"
   fill="#0067a6" />




</svg>
