<?xml version="1.0" encoding="UTF-8" standalone="no"?>
<svg
   xmlns:dc="http://purl.org/dc/elements/1.1/"
   xmlns:cc="http://creativecommons.org/ns#"
   xmlns:rdf="http://www.w3.org/1999/02/22-rdf-syntax-ns#"
   xmlns:svg="http://www.w3.org/2000/svg"
   xmlns="http://www.w3.org/2000/svg"
   xmlns:sodipodi="http://sodipodi.sourceforge.net/DTD/sodipodi-0.dtd"
   xmlns:inkscape="http://www.inkscape.org/namespaces/inkscape"
   inkscape:version="1.0 (1.0+r73+1)"
   sodipodi:docname="cnpq-desativado.svg"
   xml:space="preserve"
   enable-background="new 0 0 418.32 178.68"
   viewBox="0 0 124.848 125.39988"
   height="125.39987"
   width="124.848"
   y="0px"
   x="0px"
   id="Camada_1"
   version="1.1"><metadata
   id="metadata21"><rdf:RDF><cc:Work
       rdf:about=""><dc:format>image/svg+xml</dc:format><dc:type
         rdf:resource="http://purl.org/dc/dcmitype/StillImage" /><dc:title /></cc:Work></rdf:RDF></metadata><defs
   id="defs19" /><sodipodi:namedview
   inkscape:current-layer="Camada_1"
   inkscape:window-maximized="1"
   inkscape:window-y="282"
   inkscape:window-x="1680"
   inkscape:cy="71.73448"
   inkscape:cx="84.383877"
   inkscape:zoom="2.7921208"
   fit-margin-bottom="0"
   fit-margin-right="0"
   fit-margin-left="0"
   fit-margin-top="0"
   showgrid="false"
   id="namedview17"
   inkscape:window-height="703"
   inkscape:window-width="1366"
   inkscape:pageshadow="2"
   inkscape:pageopacity="0"
   guidetolerance="10"
   gridtolerance="10"
   objecttolerance="10"
   borderopacity="1"
   bordercolor="#666666"
   pagecolor="#ffffff"
   inkscape:document-rotation="0" />
<path
   style="fill:#000000"
   id="path2"
   d="m 103.248,41.879871 c 2.088,8.352 1.872,12.888 0.432,19.584 -1.872,7.488 -5.976,13.032 -9.864,16.488 l 13.896,47.447999 H 93.96 c -4.608,-17.352 -10.368,-36.503999 -15.12,-53.855999 2.808,-1.512 10.656,-5.976 11.952,-16.416 1.224,-9.792 -4.896,-17.424 -9.072,-20.232 -3.672,-2.232 -9.072,-3.96 -14.112,-2.952 -9.792,1.08 -16.416,8.64 -17.928,16.992 -0.216,1.152 -0.216,1.728 -0.36,3.312 0,0 -3.816,10.728 -5.112,14.112 h 2.88 l -0.072,27.864 h 33.12 l 3.816,13.535999 H 33.336 V 76.583871 h -6.984 c 2.52,-7.56 9,-24.336 9,-24.336 0.792,-6.048 1.152,-17.64 13.464,-27.144 5.76,-4.824 14.76,-8.064 24.408,-7.272 15.912,1.944 26.496,12.816 30.024,24.048 z"
   fill="#0067a6" />
<path
   style="fill:#000000"
   id="path4"
   d="m 117.36,29.495871 c 10.08,22.248 3.528,43.128 -3.96,52.992 l 11.448,42.551999 H 111.312 L 98.064,79.247871 c 8.208,-7.848 13.32,-23.832 9.36,-37.008 -3.6,-13.32 -14.688,-24.552 -30.384,-27.648 -16.848,-3.456 -32.76,5.184 -39.528,17.136 -4.32,6.552 -5.04,12.816 -5.76,20.52 0,0 -8.496,20.376 -11.376,27.792 h 9 l 0.072,31.319999 H 84.96 l 3.888,13.896 H 15.696 V 92.279871 L 0,92.207871 c 0,0 16.992,-38.808 16.92,-39.96 1.008,-13.608 7.128,-30.528 20.088,-40.608 6.624,-5.184 15.48,-10.152 27.288,-11.304 12.816,-1.224 18.288,1.08 26.856,3.96 14.328,6.12 24.048,19.944 26.208,25.2 z"
   fill="#0067a6" />
<path
   style="fill:#000000"
   id="path6"
   d="m 56.52,52.679871 c 0,-7.56 6.12,-13.68 13.608,-13.68 7.56,0 13.68,6.12 13.68,13.68 0,7.488 -6.12,13.536 -13.68,13.536 -7.488,0 -13.608,-6.048 -13.608,-13.536 z"
   fill="#0067a6" />




<path
   style="fill:#000000;stroke-width:7.16301"
   d="M 16.116783,108.50093 V 92.025998 H 8.3318523 0.54692169 L 8.7677339,72.906689 C 15.181022,57.991176 17.138175,52.67574 17.669073,48.731518 18.545001,42.223955 22.388165,30.911531 25.500725,25.678911 28.941724,19.89414 35.485361,13.08385 41.346629,9.1872866 65.525932,-6.8870826 97.625649,-0.12287425 113.96271,24.489298 c 10.02011,15.095552 10.64696,38.815461 1.43026,54.121306 l -2.38125,3.954456 5.60597,20.66817 c 3.08329,11.3675 5.61826,20.90993 5.63329,21.20541 0.015,0.29547 -2.80592,0.53722 -6.26876,0.53722 h -6.29608 l -6.55058,-22.69854 -6.550576,-22.698549 2.098826,-2.649986 c 3.40397,-4.297865 6.21803,-10.707026 7.518,-17.12268 C 112.1815,40.165525 100.92551,21.534396 81.300209,15.27805 74.802797,13.206742 63.983816,13.186917 58.020414,15.23539 43.102322,20.359874 33.935693,31.555387 31.981149,47.03802 c -0.489261,3.875613 -2.075282,8.664866 -6.113604,18.461055 -2.999125,7.275294 -5.452954,13.641423 -5.452954,14.146953 0,0.64586 1.277824,0.919143 4.297808,0.919143 h 4.297809 v 15.40048 15.400479 h 27.935754 c 15.364664,0 27.935754,0.24402 27.935754,0.54227 0,0.29824 0.775353,3.36043 1.723013,6.80486 l 1.723012,6.2626 H 52.222264 16.116783 Z"
   id="path832" /><path
   style="fill:#000000;stroke-width:7.16301"
   d="m 93.816202,123.36418 c -0.2226,-0.88642 -3.573958,-12.73225 -7.447463,-26.324073 l -7.042736,-24.712398 2.24063,-1.790753 c 7.038735,-5.625487 9.374009,-10.086652 9.374009,-17.907535 0,-8.616901 -4.356587,-15.885517 -11.631265,-19.40583 C 74.782605,31.033026 66.656894,30.95878 61.92368,33.064736 55.260527,36.02938 50.418776,42.22239 49.334162,49.167792 c -0.266556,1.706913 -1.563968,6.101075 -2.883137,9.764804 -2.812264,7.810505 -2.837829,8.022853 -0.965885,8.022853 1.383625,0 1.432602,0.477535 1.432602,13.967877 v 13.967877 h 16.4446 16.444601 l 1.502005,5.193187 c 0.826104,2.85625 1.635476,5.5961 1.798605,6.08856 0.233442,0.70472 -4.960733,0.89538 -24.393319,0.89538 H 34.024317 V 91.667847 76.267367 h -3.56018 -3.560181 l 2.938113,-8.058391 c 4.408018,-12.089913 6.114279,-17.595699 7.048,-22.742569 1.23925,-6.831006 3.931385,-11.912064 9.012725,-17.010355 16.750824,-16.806705 44.496545,-12.043587 55.275656,9.489191 5.64645,11.279578 3.30475,27.8209 -5.262391,37.172438 l -2.523137,2.754153 6.513194,22.298486 c 3.582254,12.26417 6.685154,22.86257 6.895344,23.55201 0.34437,1.12964 -0.25845,1.25353 -6.0992,1.25353 -6.123929,0 -6.50365,-0.0889 -6.886058,-1.61168 z"
   id="path834" /><path
   style="fill:#000000;stroke-width:7.16301"
   d="m 64.468723,64.434596 c -3.266852,-1.764563 -4.733357,-3.292173 -6.175591,-6.432914 -3.310062,-7.208296 0.475812,-15.617201 8.042946,-17.864399 10.876608,-3.230005 20.419322,7.64924 15.742667,17.947553 -2.064411,4.545974 -5.760906,6.971927 -11.071819,7.266262 -3.070885,0.170191 -5.036429,-0.105331 -6.538203,-0.916502 z"
   id="path836" /><path
   id="path835"
   d=""
   style="fill:#000000;stroke-width:1.26625" /><path
   id="path837"
   d="m 68.186558,66.02084 c -4.41692,-0.69649 -8.214032,-3.459047 -10.175296,-7.402951 -2.260396,-4.545427 -1.777851,-9.90962 1.261348,-14.021726 0.881005,-1.19202 2.668858,-2.831736 3.887664,-3.565543 2.671391,-1.608365 5.941968,-2.268974 8.94094,-1.805942 5.479938,0.846087 9.75283,4.699446 11.236639,10.133372 0.244435,0.895154 0.280299,1.334269 0.275385,3.371759 -0.0052,2.176168 -0.0301,2.423521 -0.349903,3.482198 -0.88808,2.939917 -2.569153,5.407069 -4.88235,7.16536 -1.189193,0.903922 -3.378483,1.951816 -4.886892,2.339091 -1.423588,0.365499 -3.987488,0.512536 -5.307535,0.304382 z m 4.68116,-0.823148 c 4.634922,-0.808263 7.761864,-3.353196 9.529652,-7.755927 1.202597,-2.995103 1.217986,-6.548025 0.04153,-9.588138 -1.144034,-2.956331 -3.780044,-5.768806 -6.649391,-7.094525 -1.790421,-0.827225 -2.972827,-1.09772 -5.098757,-1.166422 -1.653136,-0.05342 -2.096589,-0.02349 -3.222115,0.217491 -2.535177,0.542794 -4.512834,1.562535 -6.314384,3.255891 -4.754517,4.46898 -5.438888,11.656852 -1.644957,17.276796 1.469748,2.177135 4.572754,4.35715 6.893774,4.843218 1.240443,0.259774 5.002838,0.266534 6.464647,0.01161 z"
   style="fill:#000000;stroke-width:1.26625" /><path
   id="path839"
   d="m 79.143956,72.427298 c -0.206412,-0.819736 -0.191376,-0.864854 0.397475,-1.192676 1.840436,-1.0246 3.668428,-2.367126 5.210053,-3.826403 0.598722,-0.56674 1.088585,-0.971748 1.088585,-0.900019 0,0.266659 -4.379128,4.139028 -6.218829,5.499178 -0.285712,0.211236 -0.338295,0.328067 -0.279643,0.621324 0.115449,0.577245 -0.04197,0.416831 -0.197641,-0.201404 z"
   style="fill:#000000;stroke-width:1.26625" /><path
   id="path841"
   d="m 95.759354,124.77246 c -1.095343,-0.14272 -1.498171,-0.38263 -1.737461,-1.03477 -0.109151,-0.29747 -0.802941,-2.70614 -1.541753,-5.35262 C 91.346072,114.32278 80.103068,74.751014 79.57592,72.966367 l -0.175254,-0.593318 1.858479,-1.487951 c 2.225739,-1.781989 5.375615,-4.905538 6.390267,-6.336855 1.983266,-2.797689 2.918167,-5.565604 3.264758,-9.665803 0.568282,-6.722797 -1.485723,-12.982127 -5.707228,-17.392078 -3.0633,-3.200043 -6.308857,-4.961111 -10.417694,-5.652729 -3.006352,-0.506042 -6.569152,-0.456168 -9.48635,0.132796 -5.791791,1.169326 -11.315237,5.598378 -14.153892,11.349494 -0.873157,1.769016 -1.319561,3.132345 -1.845377,5.635825 -0.579421,2.758709 -1.281303,5.184716 -2.593917,8.965702 -1.964482,5.658691 -2.43405,7.147592 -2.497086,7.917717 -0.07675,0.937713 0.04089,1.064132 1.107291,1.189871 0.420479,0.04958 0.829628,0.155264 0.909222,0.234859 0.07959,0.07959 0.229934,0.503042 0.334087,0.940996 0.159732,0.671649 0.197572,2.82276 0.241759,13.743725 l 0.05239,12.947446 h 16.443807 c 15.551676,0 16.44732,0.01202 16.508575,0.221595 0.03562,0.121877 0.584618,2.016509 1.219989,4.210294 0.635369,2.193787 1.350459,4.635767 1.589089,5.426627 0.238628,0.79086 0.406024,1.48299 0.37199,1.53805 -0.120792,0.19545 -1.725005,0.38533 -4.32698,0.51215 -1.450482,0.0707 -12.081912,0.16352 -23.6254,0.20627 l -20.988158,0.0777 V 91.622139 76.155506 H 30.55332 c -3.268922,0 -3.493048,-0.01445 -3.436868,-0.221594 0.03305,-0.121877 1.153588,-3.232686 2.490076,-6.912907 4.692218,-12.920739 6.104929,-17.443923 7.35443,-23.547244 0.79617,-3.888976 1.481175,-5.983052 2.81901,-8.617781 3.275142,-6.450057 9.464975,-12.307265 16.28815,-15.412872 2.893477,-1.316982 6.177443,-2.284804 9.197115,-2.710493 2.269929,-0.319996 8.646809,-0.221393 10.640634,0.164532 4.936117,0.955437 9.14307,2.649961 13.10497,5.278571 6.225537,4.13047 11.402933,10.787828 13.589743,17.474369 3.11824,9.534516 1.52209,21.382242 -4.025509,29.8802 -0.972417,1.489576 -2.082718,2.864242 -4.042546,5.005095 -0.733868,0.801654 -1.193757,1.404983 -1.158246,1.519505 0.03239,0.104466 0.824772,2.811084 1.760841,6.014706 0.93607,3.203623 3.818945,13.061409 6.40639,21.906197 2.58744,8.84478 4.84399,16.56277 5.01455,17.15108 0.29875,1.03049 0.30175,1.07802 0.0819,1.29784 -0.14786,0.14787 -0.56124,0.2714 -1.17442,0.35097 -1.12122,0.14549 -8.581915,0.14302 -9.704203,-0.003 z"
   style="fill:#000000;stroke-width:1.26625" /><path
   id="path843"
   d=""
   style="fill:#000000;stroke-width:1.26625" /><path
   id="path845"
   d=""
   style="fill:#000000;stroke-width:1.26625" /><path
   id="path847"
   d="m 85.972369,66.235609 c -0.0031,-0.05854 0.243981,-0.400425 0.549115,-0.759753 1.171386,-1.379431 2.302279,-3.323739 3.062558,-5.265359 0.233908,-0.597358 0.427397,-0.987689 0.429976,-0.867402 0.01328,0.619366 -1.183089,3.166901 -2.21645,4.719686 -0.677108,1.017459 -1.814602,2.3716 -1.825199,2.172828 z"
   style="fill:#000000;stroke-width:1.26625" /></svg>
