<?xml version="1.0" encoding="UTF-8" standalone="no"?>
<svg
   xmlns:dc="http://purl.org/dc/elements/1.1/"
   xmlns:cc="http://creativecommons.org/ns#"
   xmlns:rdf="http://www.w3.org/1999/02/22-rdf-syntax-ns#"
   xmlns:svg="http://www.w3.org/2000/svg"
   xmlns="http://www.w3.org/2000/svg"
   xmlns:sodipodi="http://sodipodi.sourceforge.net/DTD/sodipodi-0.dtd"
   xmlns:inkscape="http://www.inkscape.org/namespaces/inkscape"
   inkscape:version="1.0 (1.0+r73+1)"
   sodipodi:docname="iconfinder_92_Application_clipboard_curriculum_cv_resume_staff_4308335.svg"
   id="svg20"
   xml:space="preserve"
   width="349.91"
   viewBox="0 0 349.91 419.664"
   version="1.1"
   height="419.664"><metadata
     id="metadata26"><rdf:RDF><cc:Work
         rdf:about=""><dc:format>image/svg+xml</dc:format><dc:type
           rdf:resource="http://purl.org/dc/dcmitype/StillImage" /><dc:title></dc:title></cc:Work></rdf:RDF></metadata><defs
     id="defs24" /><sodipodi:namedview
     inkscape:current-layer="svg20"
     inkscape:window-maximized="1"
     inkscape:window-y="0"
     inkscape:window-x="0"
     inkscape:cy="171.33576"
     inkscape:cx="149.93244"
     inkscape:zoom="1.0390625"
     fit-margin-bottom="0"
     fit-margin-right="0"
     fit-margin-left="0"
     fit-margin-top="0"
     showgrid="false"
     id="namedview22"
     inkscape:window-height="703"
     inkscape:window-width="1366"
     inkscape:pageshadow="2"
     inkscape:pageopacity="0"
     guidetolerance="10"
     gridtolerance="10"
     objecttolerance="10"
     borderopacity="1"
     bordercolor="#666666"
     pagecolor="#ffffff" /><g
     transform="translate(-81.045,-46.168)"
     id="C_-_92_x2C__Application_x2C__clipboard_x2C__curriculum_x2C__cv_x2C__resume_x2C__staff"><g
       id="g16"><path
         id="path2"
         d="m 229.329,287.5 h -36.454 c -7.173,0 -13.009,5.798 -13.009,12.925 v 12.17 c 0,0.691 0.599,1.275 1.309,1.275 h 59.853 c 0.709,0 1.309,-0.584 1.309,-1.275 v -12.17 C 242.336,293.298 236.501,287.5 229.329,287.5 Z" /><path
         id="path4"
         d="m 287.601,330.391 c -1.94,2.56 -4.022,5.033 -6.241,7.412 -0.115,0.125 -0.231,0.249 -0.348,0.373 -0.706,0.748 -1.42,1.49 -2.152,2.22 -0.714,0.711 -1.441,1.403 -2.174,2.089 -0.162,0.151 -0.324,0.301 -0.486,0.449 -0.707,0.652 -1.422,1.295 -2.146,1.924 -0.024,0.021 -0.048,0.042 -0.071,0.063 -1.67,1.446 -3.385,2.828 -5.139,4.146 l 13.061,12.996 18.762,-18.672 z" /><path
         id="path6"
         d="m 283.085,320.567 c 0.011,-0.016 0.022,-0.029 0.033,-0.044 9.142,-13.727 14.056,-29.815 14.055,-46.658 -10e-4,-22.619 -8.853,-43.883 -24.924,-59.877 -16.079,-16.003 -37.458,-24.816 -60.197,-24.816 -22.74,0 -44.118,8.813 -60.196,24.816 -16.069,15.994 -24.918,37.258 -24.919,59.877 -10e-4,22.621 8.849,43.89 24.919,59.888 16.078,16.002 37.456,24.813 60.196,24.813 16.926,0 33.094,-4.89 46.888,-13.984 0.021,-0.015 0.04,-0.032 0.063,-0.047 4.744,-3.127 9.2,-6.754 13.246,-10.782 4.043,-4.027 7.689,-8.465 10.836,-13.186 z M 211.182,213.25 c 12.449,0 22.577,10.122 22.577,22.562 0,12.439 -10.128,22.56 -22.577,22.56 -12.444,0 -22.569,-10.121 -22.569,-22.56 0,-12.441 10.124,-22.562 22.569,-22.562 z m 40.526,99.345 c 0,5.87 -4.791,10.646 -10.68,10.646 h -59.853 c -5.889,0 -10.68,-4.776 -10.68,-10.646 v -12.17 c 0,-12.294 10.04,-22.296 22.38,-22.296 h 36.454 c 12.339,0 22.378,10.002 22.378,22.296 v 12.17 z" /><polygon
         id="polygon8"
         points="424.339,90.424 386.494,52.757 386.494,90.424 " /><path
         id="path10"
         d="m 211.182,249 c 7.281,0 13.206,-5.916 13.206,-13.189 0,-7.273 -5.924,-13.19 -13.206,-13.19 -7.277,0 -13.198,5.917 -13.198,13.19 0,7.273 5.92,13.189 13.198,13.189 z" /><path
         id="path12"
         d="m 381.809,99.795 c -2.588,0 -4.686,-2.097 -4.686,-4.686 V 46.168 H 81.045 l 0.062,419.664 H 430.955 V 99.795 Z m -260.512,9.948 h 176.035 c 2.588,0 4.686,2.097 4.686,4.686 0,2.588 -2.098,4.685 -4.686,4.685 H 121.297 c -2.587,0 -4.686,-2.097 -4.686,-4.685 10e-4,-2.589 2.099,-4.686 4.686,-4.686 z m 0,34.31 h 251.477 c 2.589,0 4.686,2.098 4.686,4.686 0,2.588 -2.097,4.686 -4.686,4.686 H 121.297 c -2.587,0 -4.686,-2.098 -4.686,-4.686 0,-2.588 2.099,-4.686 4.686,-4.686 z m 265.512,265.863 -38.098,37.922 c -0.915,0.909 -2.109,1.364 -3.307,1.364 -1.195,0 -2.391,-0.455 -3.305,-1.364 l -69.852,-69.523 c -0.883,-0.879 -1.379,-2.074 -1.379,-3.32 0,-1.247 0.496,-2.441 1.38,-3.321 l 3.015,-3 -14.332,-14.261 c -14.596,8.814 -31.374,13.525 -48.88,13.525 -25.235,0 -48.96,-9.781 -66.807,-27.542 -17.851,-17.771 -27.681,-41.398 -27.68,-66.53 0.001,-25.129 9.832,-48.754 27.68,-66.519 17.847,-17.763 41.572,-27.545 66.807,-27.545 25.234,0 48.96,9.782 66.808,27.545 17.852,17.765 27.684,41.389 27.685,66.519 0.001,17.422 -4.729,34.121 -13.575,48.646 l 14.341,14.271 3.044,-3.029 c 1.829,-1.819 4.783,-1.818 6.611,0 l 69.844,69.521 c 0.884,0.879 1.381,2.074 1.381,3.32 -10e-4,1.247 -0.498,2.442 -1.381,3.321 z" /><path
         id="path14"
         d="m 282.196,374.994 63.208,62.911 31.457,-31.311 -63.203,-62.909 z m 63.612,24.036 c 4.947,0 8.959,3.992 8.959,8.916 0,4.929 -4.012,8.919 -8.959,8.919 -4.947,0 -8.96,-3.99 -8.96,-8.919 0,-4.924 4.012,-8.916 8.96,-8.916 z" /></g></g><g
     transform="translate(-81.045,-46.168)"
     id="Layer_1" /></svg>
