<?xml version="1.0" encoding="UTF-8" standalone="no"?>
<svg
   xmlns:dc="http://purl.org/dc/elements/1.1/"
   xmlns:cc="http://creativecommons.org/ns#"
   xmlns:rdf="http://www.w3.org/1999/02/22-rdf-syntax-ns#"
   xmlns:svg="http://www.w3.org/2000/svg"
   xmlns="http://www.w3.org/2000/svg"
   xmlns:sodipodi="http://sodipodi.sourceforge.net/DTD/sodipodi-0.dtd"
   xmlns:inkscape="http://www.inkscape.org/namespaces/inkscape"
   inkscape:version="1.0 (1.0+r73+1)"
   sodipodi:docname="linkedin-desativado-rodape.svg"
   xml:space="preserve"
   viewBox="0 0 430.1 430.1"
   version="1.1"
   style="enable-background:new 0 0 430.1 430.1;"
   id="Capa_1"><metadata
     id="metadata12"><rdf:RDF><cc:Work
         rdf:about=""><dc:format>image/svg+xml</dc:format><dc:type
           rdf:resource="http://purl.org/dc/dcmitype/StillImage" /></cc:Work></rdf:RDF></metadata><defs
     id="defs10" /><sodipodi:namedview
     inkscape:current-layer="Capa_1"
     inkscape:window-maximized="1"
     inkscape:window-y="282"
     inkscape:window-x="1680"
     inkscape:cy="214.88257"
     inkscape:cx="215.05"
     inkscape:zoom="0.87463567"
     showgrid="false"
     id="namedview8"
     inkscape:window-height="703"
     inkscape:window-width="1366"
     inkscape:pageshadow="2"
     inkscape:pageopacity="0"
     guidetolerance="10"
     gridtolerance="10"
     objecttolerance="10"
     borderopacity="1"
     bordercolor="#666666"
     pagecolor="#ffffff" /><g
     style="fill:#ffffff"
     id="g5"><g
       style="fill:#ffffff"
       id="g3"><path
         style="fill:#ffffff"
         id="LinkedIn__x28_alt_x29_"
         d="M398.4,0H31.8C14.2,0,0,13.8,0,30.8v368.5c0,17,14.2,30.8,31.8,30.8h366.6     c17.5,0,31.8-13.8,31.8-30.8V30.8C430.1,13.8,415.9,0,398.4,0z M130.4,360h-65V165.8h65V360z M97.9,139.3h-0.4     c-21.8,0-35.9-14.9-35.9-33.6c0-19,14.5-33.5,36.8-33.5c22.2,0,35.9,14.5,36.3,33.5C134.7,124.4,120.6,139.3,97.9,139.3z      M364.7,360h-65V256.1c0-26.1-9.4-43.9-32.9-43.9c-18,0-28.6,12-33.3,23.6c-1.7,4.1-2.2,9.9-2.2,15.7V360h-65     c0,0,0.9-176,0-194.2h65v27.5c8.6-13.2,24-32.1,58.5-32.1c42.8,0,74.8,27.7,74.8,87.4L364.7,360L364.7,360z M230.9,194     c0.1-0.2,0.3-0.4,0.4-0.6v0.6H230.9z" /></g></g></svg>
